<svg width="136" height="42" viewBox="0 0 136 42" fill="none" xmlns="http://www.w3.org/2000/svg">
<path fill-rule="evenodd" clip-rule="evenodd" d="M71.6874 10.5756C71.6874 12.0501 70.4753 13.3236 68.9265 13.3236C67.3777 13.3236 66.1655 12.1172 66.1655 10.5756C66.1655 9.03412 67.3103 7.82771 68.9265 7.82771C70.5426 7.96176 71.6874 9.16816 71.6874 10.5756ZM60.4417 16.0714C60.4417 16.3395 60.4417 16.7416 60.4417 16.7416C60.4417 16.7416 59.1622 15.0661 56.4013 15.0661C51.8222 15.0661 48.2531 18.5512 48.2531 23.3098C48.2531 28.0684 51.7548 31.5536 56.4013 31.5536C59.2295 31.5536 60.4417 29.811 60.4417 29.811V30.5483C60.4417 30.8834 60.711 31.1515 61.0477 31.1515H64.4147V15.4682C64.4147 15.4682 61.3171 15.4682 61.0477 15.4682C60.711 15.4682 60.4417 15.8033 60.4417 16.0714ZM60.4416 26.1248C59.8356 27.0631 58.5561 27.8674 57.0746 27.8674C54.381 27.8674 52.3609 26.1918 52.3609 23.3769C52.3609 20.562 54.4484 18.8864 57.0746 18.8864C58.5561 18.8864 59.9029 19.6907 60.4416 20.629V26.1248ZM66.9737 15.4682H71.0141V31.1515H66.9737V15.4682ZM127.108 15.0661C124.347 15.0661 123.068 16.7417 123.068 16.7417V7.96172H119.027V31.2185C119.027 31.2185 122.125 31.2185 122.394 31.2185C122.731 31.2185 123 30.9504 123 30.6153V29.8781C123 29.8781 124.28 31.6207 127.041 31.6207C131.62 31.6207 135.189 28.1355 135.189 23.3769C135.256 18.5513 131.687 15.0661 127.108 15.0661ZM126.435 27.8003C124.886 27.8003 123.674 26.996 123.068 26.0577V20.4278C123.674 19.6236 125.021 18.6852 126.435 18.6852C129.128 18.6852 131.148 20.3608 131.148 23.1757C131.148 25.9907 129.128 27.8003 126.435 27.8003ZM116.94 21.9024V31.2855H112.899V22.3715C112.899 19.7576 112.091 18.7523 109.802 18.7523C108.59 18.7523 107.31 19.3555 106.502 20.2938V31.2185H102.462V15.4682H105.627C105.963 15.4682 106.233 15.7363 106.233 16.0714V16.7416C107.378 15.5352 108.994 15.0661 110.543 15.0661C112.293 15.0661 113.775 15.5352 114.92 16.5406C116.401 17.747 116.94 19.2215 116.94 21.9024ZM92.6974 15.0661C89.9365 15.0661 88.657 16.7417 88.657 16.7417V7.96172H84.6166V31.2185C84.6166 31.2185 87.7143 31.2185 87.9836 31.2185C88.3203 31.2185 88.5897 30.9504 88.5897 30.6153V29.8781C88.5897 29.8781 89.8691 31.6207 92.6301 31.6207C97.2092 31.6207 100.778 28.1355 100.778 23.3769C100.846 18.5513 97.2765 15.0661 92.6974 15.0661ZM92.0241 27.8003C90.4752 27.8003 89.2631 26.996 88.6571 26.0577V20.4278C89.2631 19.6236 90.6099 18.6852 92.0241 18.6852C94.7176 18.6852 96.7378 20.3608 96.7378 23.1757C96.7378 25.9907 94.7176 27.8003 92.0241 27.8003ZM81.115 15.0661C82.3271 15.0661 82.9331 15.2671 82.9331 15.2671V18.9534C82.9331 18.9534 79.5662 17.814 77.4786 20.2268V31.2185H73.4382V15.4682C73.4382 15.4682 76.5359 15.4682 76.8052 15.4682C77.1419 15.4682 77.4113 15.7363 77.4113 16.0714V16.7416C78.2194 15.8703 79.9029 15.0661 81.115 15.0661ZM39.297 29.8111C39.095 29.3419 38.8929 28.7387 38.6909 28.3366C38.3542 27.5994 38.0175 26.8621 37.7482 26.1919L37.6808 26.1249C34.7852 19.8918 31.6876 13.5246 28.3879 7.2245L28.2532 6.95641C27.9165 6.35321 27.5798 5.68299 27.2431 5.01276C26.8391 4.27551 26.4351 3.47124 25.7617 2.734C24.4149 1.05843 22.462 0.120117 20.4418 0.120117C18.3543 0.120117 16.4688 1.05843 15.0546 2.59995C14.3812 3.40422 13.9099 4.14147 13.5058 4.94574C13.1691 5.61596 12.8324 6.28619 12.4957 6.88939L12.361 7.15748C9.12873 13.3906 5.96376 19.7577 3.06814 26.0578L3.0008 26.1249C2.73144 26.7951 2.39474 27.5323 2.05804 28.2696C1.85602 28.7387 1.65401 29.2079 1.45199 29.7441C0.913267 31.2856 0.711248 32.7601 0.980607 34.2346C1.45199 37.3846 3.53952 39.9985 6.43513 41.1379C7.51257 41.6071 8.65735 41.8081 9.80213 41.8081C10.1388 41.8081 10.5429 41.7411 10.8796 41.7411C12.2937 41.6071 13.7078 41.1379 15.0546 40.3336C16.8055 39.3953 18.4216 37.9878 20.2398 35.9772C22.058 37.9878 23.7415 39.3283 25.425 40.3336C26.8391 41.1379 28.2532 41.6071 29.6 41.7411C29.9367 41.8081 30.3408 41.8081 30.6775 41.8081C31.8223 41.8081 33.0344 41.6071 34.0445 41.1379C37.0074 39.9985 39.0276 37.3176 39.499 34.2346C39.9704 32.7601 39.8357 31.3526 39.297 29.8111ZM20.3744 31.9557C18.0848 29.1408 16.6707 26.4599 16.132 24.1811C15.93 23.2428 15.8626 22.3715 15.9973 21.6343C16.0647 20.964 16.334 20.3608 16.6707 19.8917C17.4788 18.7523 18.8256 18.0821 20.3744 18.0821C21.9232 18.0821 23.3374 18.7523 24.0781 19.8917C24.4148 20.3608 24.6841 20.964 24.7515 21.6343C24.8862 22.3715 24.8188 23.2428 24.6168 24.1811C24.0781 26.3929 22.5966 29.0738 20.3744 31.9557ZM37.0747 33.8994C36.8053 36.0441 35.3239 37.9207 33.2363 38.792C32.2262 39.1941 31.1488 39.3282 30.0713 39.1941C28.9939 39.0601 27.9838 38.725 26.9064 38.1218C25.4249 37.3175 23.8761 35.977 22.1252 34.1004C24.8862 30.7493 26.5697 27.5992 27.1757 24.8513C27.4451 23.5779 27.5124 22.3715 27.3778 21.2991C27.2431 20.2268 26.839 19.2884 26.233 18.4842C24.9535 16.6075 22.7313 15.5352 20.3071 15.5352C17.8828 15.5352 15.6606 16.6746 14.3812 18.4842C13.7751 19.2884 13.4384 20.2938 13.2364 21.2991C13.1017 22.3715 13.1017 23.5779 13.4384 24.8513C14.0445 27.5992 15.7953 30.7493 18.4889 34.1004C16.7381 36.0441 15.1892 37.3175 13.7078 38.1218C12.6303 38.725 11.5529 39.0601 10.5428 39.1941C9.39802 39.3282 8.32058 39.1271 7.37782 38.792C5.29029 37.9877 3.87615 36.0441 3.53945 33.8994C3.40477 32.827 3.47211 31.8217 3.94349 30.6152C4.07817 30.2131 4.28019 29.811 4.48221 29.2748C4.75157 28.6046 5.08827 27.8673 5.42497 27.1971L5.49231 27.1301C8.38792 20.897 11.4856 14.5298 14.7179 8.36377L14.8525 8.09568C15.1892 7.49248 15.5259 6.82225 15.8626 6.15203C16.1993 5.4818 16.6034 4.8786 17.0074 4.34242C17.8828 3.33708 19.095 2.8009 20.3744 2.8009C21.6539 2.8009 22.866 3.33708 23.7414 4.34242C24.2128 4.8786 24.5495 5.4818 24.8862 6.15203C25.2229 6.75523 25.5596 7.42546 25.8963 8.09568L26.031 8.36377C29.1959 14.5969 32.2936 20.964 35.1892 27.1301V27.1971C35.5259 27.8673 35.7952 28.6046 36.1319 29.2748C36.334 29.744 36.536 30.2131 36.6707 30.6152C37.142 31.7546 37.2767 32.827 37.0747 33.8994Z" fill="#8F8F8F"/>
</svg>
