<svg width="138" height="42" viewBox="0 0 138 42" fill="none" xmlns="http://www.w3.org/2000/svg">
<path fill-rule="evenodd" clip-rule="evenodd" d="M20.3295 19.9774L20.3294 19.9773C19.677 19.0762 19.0651 18.2311 19.0651 16.5228V9.8937C19.0651 9.65816 19.0665 9.42455 19.068 9.19303V9.19289C19.0837 6.67037 19.0979 4.39647 17.2121 2.58122C15.565 1.00937 12.8884 0.462646 10.8296 0.462646C6.78043 0.462646 2.25089 1.96615 1.29008 6.95504C1.22145 7.50177 1.5646 7.77513 1.90774 7.84347L6.0255 8.25352C6.43728 8.25352 6.7118 7.84347 6.78043 7.50177C7.12357 5.79324 8.56479 4.97315 10.2119 4.97315C11.1041 4.97315 12.0649 5.31486 12.6139 6.06661C13.1376 6.81984 13.1186 7.76956 13.1007 8.66588C13.0975 8.82678 13.0943 8.98595 13.0943 9.14195V9.68868C12.756 9.72611 12.4035 9.76226 12.0413 9.79942L12.0412 9.79943C9.75822 10.0336 7.08794 10.3075 5.13332 11.1922C2.45678 12.354 0.535156 14.6776 0.535156 18.163C0.535156 22.5368 3.34896 24.792 6.91769 24.792C9.93738 24.792 11.5845 24.1086 13.9179 21.7167C14.0144 21.8565 14.1031 21.9874 14.1874 22.1118C14.7621 22.9601 15.1316 23.5055 16.3885 24.5187C16.7317 24.6554 17.1435 24.6554 17.418 24.4503C18.2415 23.6986 19.82 22.3318 20.6436 21.6484C20.9867 21.3066 20.9181 20.8283 20.6436 20.4182C20.5394 20.2673 20.4339 20.1216 20.3295 19.9774ZM12.2707 18.573C11.5845 19.7348 10.555 20.4866 9.31968 20.4866C7.67258 20.4866 6.71177 19.2565 6.71177 17.4112C6.71177 13.7892 9.93735 13.1741 13.0257 13.1741V14.0625L13.0281 14.1201C13.0958 15.7348 13.1525 17.0872 12.2707 18.573ZM67.7682 9.86782L67.7683 9.86781L67.7683 9.8678C68.1305 9.83065 68.483 9.7945 68.8213 9.75707L68.9586 9.27868C68.9586 9.18831 68.9591 9.09687 68.9596 9.00465L68.9597 8.9985C68.9654 8.04638 68.9715 7.0117 68.4095 6.20334C67.8605 5.45158 66.8997 5.10988 66.0075 5.10988C64.3604 5.10988 62.9192 5.92997 62.576 7.6385C62.5074 7.9802 62.2329 8.39025 61.8211 8.39025L57.7034 7.9802C57.3602 7.91186 57.0171 7.6385 57.0857 7.09177C58.0465 2.10288 62.576 0.599374 66.6252 0.599374C68.6841 0.599374 71.3606 1.1461 73.0077 2.71794C74.8935 4.53319 74.8793 6.8071 74.8636 9.32961C74.8622 9.56118 74.8607 9.79484 74.8607 10.0304V16.6595C74.8607 18.3679 75.4726 19.213 76.125 20.114L76.1254 20.1146L76.1257 20.1151C76.23 20.259 76.3352 20.4044 76.4392 20.5549C76.7137 20.8966 76.7823 21.375 76.4392 21.6484C75.6156 22.3318 74.0371 23.6986 73.2136 24.4504C72.9391 24.6554 72.5273 24.6554 72.1842 24.5187C70.9273 23.5055 70.5577 22.9601 69.983 22.1119C69.8987 21.9875 69.81 21.8566 69.7135 21.7167C67.3801 24.1087 65.733 24.7921 62.7133 24.7921C59.1446 24.7921 56.3308 22.5368 56.3308 18.163C56.3308 14.746 58.1838 12.4224 60.8603 11.2606C62.8149 10.3758 65.4852 10.102 67.7682 9.86782ZM65.1153 20.4866C66.282 20.4866 67.38 19.7348 68.0663 18.5731C68.8304 17.1781 68.8265 15.9008 68.822 14.4137C68.8216 14.298 68.8213 14.181 68.8213 14.0625V13.1741C65.7329 13.1741 62.5074 13.7892 62.5074 17.4113C62.5074 19.2565 63.4682 20.4866 65.1153 20.4866ZM29.0163 24.4504H24.7613C24.3495 24.382 24.0064 24.1087 23.9377 23.6986V1.89786C23.9377 1.48782 24.2809 1.14611 24.7613 1.14611H28.7418C29.1536 1.21445 29.4967 1.48782 29.4967 1.89786V4.76818H29.5653C30.6634 2.03455 32.585 0.736066 35.1929 0.736066C37.8009 0.736066 39.5166 2.03455 40.6833 4.76818C41.7127 2.03455 44.0461 0.736066 46.5854 0.736066C48.3698 0.736066 50.36 1.48782 51.5267 3.128C52.7053 4.71239 52.6695 6.90143 52.6358 8.95961V8.95976V8.95992V8.96007V8.96023C52.6303 9.29883 52.6248 9.63387 52.6248 9.9621V23.6986C52.6248 24.1087 52.2817 24.4504 51.8012 24.4504H47.5462C47.1344 24.4504 46.7913 24.1087 46.7913 23.6986V12.149C46.7913 11.9812 46.7934 11.7734 46.7958 11.5401V11.5401C46.8069 10.4431 46.8238 8.78115 46.654 8.04855C46.3795 6.61339 45.4187 6.20335 44.1834 6.20335C43.1539 6.20335 42.0559 6.88676 41.6441 7.98021C41.215 8.95687 41.2239 10.5333 41.2307 11.7354C41.2315 11.8792 41.2323 12.0176 41.2323 12.149V23.6986C41.2323 24.1087 40.8892 24.4504 40.4088 24.4504H36.1538C35.742 24.4504 35.3988 24.1087 35.3988 23.6986V12.149C35.3988 11.892 35.4033 11.623 35.4079 11.3475V11.3474V11.3473V11.3473V11.3472C35.4474 8.98482 35.495 6.135 32.7909 6.135C29.8271 6.135 29.834 9.34501 29.8394 11.8388C29.8396 11.9436 29.8399 12.0471 29.8399 12.149V23.6986C29.8399 24.1087 29.4967 24.4504 29.0163 24.4504ZM95.2437 18.5731C92.773 17.2063 89.9592 16.7962 87.2826 16.8646L94.5574 6.54508C95.2437 5.58831 95.5868 5.04158 95.5868 4.56319V1.8979C95.5868 1.41951 95.2437 1.14614 94.7632 1.14614H80.7629C80.3511 1.14614 80.0079 1.48785 80.0079 1.8979V4.97324C80.0079 5.45163 80.3511 5.72499 80.8315 5.72499H88.1062L79.7334 17.6847C79.253 18.4364 79.253 19.3248 79.253 19.8032V22.9469C79.253 23.4253 79.7334 23.9037 80.2138 23.6303C84.9492 21.1017 90.6455 21.3751 94.9691 23.6303C95.5182 23.9037 95.9986 23.357 95.9986 22.9469V19.5982C95.9299 19.3248 95.7927 18.8465 95.2437 18.5731ZM79.802 28.6875C78.9785 28.7559 78.9098 28.0725 79.5961 27.5941C84.1257 24.382 91.6749 25.3388 92.4984 26.5006C93.3906 27.5257 92.2239 35.0432 87.9689 38.597C87.3512 39.1437 86.7336 38.8703 87.0081 38.1186L87.0574 37.9958C88.0416 35.5468 90.1478 30.3059 89.1356 29.0292C88.1465 27.7816 82.7856 28.3637 80.1147 28.6537L79.802 28.6875ZM57.0857 36.5468C65.9389 36.5468 75.6843 34.7016 84.6061 30.9428C85.9787 30.3277 87.0768 31.7629 85.7042 32.8563C77.7432 38.6653 66.1448 41.809 56.1936 41.809C42.2618 41.809 29.7026 36.6834 20.1632 28.1408C19.4082 27.4574 20.0945 26.5006 20.9867 27.0474C31.2811 32.993 43.9775 36.5468 57.0857 36.5468ZM98.0575 12.7641C98.0575 5.99832 101.42 0.736066 107.597 0.736066C113.911 0.736066 117.274 6.135 117.342 12.9691C117.342 19.5982 113.568 24.8604 107.597 24.8604C101.42 24.8604 98.0575 19.4615 98.0575 12.7641ZM104.303 12.2376C104.301 14.9618 104.299 20.4182 107.597 20.4182C110.891 20.4182 111.028 15.8394 111.097 13.0374C111.097 11.2606 111.028 9.0053 110.479 7.29678C109.999 5.79328 109.038 5.17821 107.666 5.17821C104.509 5.17821 104.303 9.41535 104.303 12.0806L104.303 12.2376ZM126.127 5.10989C127.294 2.17123 128.941 0.736066 131.892 0.736066C133.745 0.736066 135.598 1.41948 136.902 3.40136C138 5.10989 138 8.04855 138 10.1671V23.8353C137.931 24.2454 137.588 24.5187 137.176 24.5187H132.921C132.509 24.5187 132.235 24.177 132.166 23.8353V12.0123C132.166 11.8305 132.168 11.6424 132.17 11.45V11.4477V11.4453C132.189 9.1067 132.215 6.135 129.49 6.135C128.46 6.135 127.499 6.81841 127.019 7.84353C126.401 9.14201 126.333 10.5088 126.333 11.944V23.6303C126.333 24.0403 125.99 24.382 125.509 24.382H121.254C120.842 24.382 120.499 24.0403 120.499 23.6303V1.89786C120.568 1.55616 120.911 1.21445 121.323 1.21445H125.235C125.578 1.21445 125.921 1.48782 125.99 1.82952V5.10989H126.127Z" fill="#8F8F8F"/>
</svg>
