<svg width="129" height="50" viewBox="0 0 129 50" fill="none" xmlns="http://www.w3.org/2000/svg">
<path id="Logo" fill-rule="evenodd" clip-rule="evenodd" d="M126.753 23.893C126.737 23.9086 126.707 24.022 126.657 24.2087C126.307 25.5257 124.984 30.4896 120.892 30.4896C119.066 30.4896 117.792 29.1451 117.028 27.5064C122.719 26.2459 124.63 21.7921 124.63 18.7669C124.63 15.2375 122.082 13.935 119.916 13.935C116.391 13.935 111.761 17.2123 111.761 23.5569C111.761 24.1451 111.804 24.6913 111.846 25.1955C110.615 24.8174 109.553 24.1871 108.831 23.0947C109.893 18.3888 109.723 13.893 107.514 13.893C106.283 13.893 105.221 15.4896 105.221 19.019C105.221 20.4056 105.603 21.9602 106.325 23.3468C105.858 25.4896 104.329 30.6997 102.333 30.6997C99.9762 30.6997 100.302 21.0646 100.43 17.2708C100.449 16.6894 100.464 16.2451 100.464 15.9938C100.464 14.4392 96.6845 12.8426 95.8776 13.6409C95.5378 13.977 95.4529 16.0779 95.4529 18.7669C95.4529 20.9938 95.6228 23.5989 96.1324 26.0359C95.8776 27.3384 94.7309 30.7417 92.6499 30.7417C89.9901 30.7417 90.618 22.4962 90.9213 18.513C90.9861 17.6624 91.036 17.0062 91.036 16.6661C91.036 15.2795 87.4261 13.977 86.5342 14.8174C86.1945 15.1535 85.9397 17.6325 85.9397 21.456C85.9397 23.0527 86.0246 24.7333 86.2794 26.33C85.9397 28.0106 84.5806 30.7417 82.4147 30.7417C78.9468 30.7417 80.4483 17.5759 81.3836 9.37482L81.3954 9.27113C81.9475 9.1871 82.5421 9.10306 83.1367 9.01903C83.2587 9.00561 83.3829 8.99139 83.5082 8.97705C84.952 8.81177 86.5342 8.63064 86.5342 9.48121C86.5342 11.6241 87.9782 12.2963 89.04 12.2963C90.2291 12.2963 91.2484 11.372 91.2484 9.60726C91.2484 7.88457 89.7195 6.24592 87.0439 6.24592C85.2601 6.24592 83.4339 6.456 81.6502 6.75012C81.6843 6.37864 81.7185 6.03129 81.7502 5.70888V5.70881C81.8367 4.82783 81.905 4.13302 81.905 3.64087C81.905 1.83415 78.1252 0.069441 77.3608 0.825744C77.2333 0.951795 76.7237 3.80894 76.2565 7.80054C73.6234 8.30474 71.0327 8.76693 68.4421 8.76693C67.5502 8.76693 67.6776 11.456 70.693 11.456C72.4342 11.456 74.1755 11.0779 75.9593 10.6157C75.7044 13.3888 75.5345 16.456 75.5345 19.3972C75.5345 22.0443 75.7044 24.3552 76.0442 26.33C75.7044 27.8006 74.6427 30.7838 72.6466 30.7838C69.4666 30.7838 70.1963 21.7391 70.5313 17.5864L70.5313 17.5862L70.5315 17.5844L70.5315 17.5836C70.5991 16.7463 70.6505 16.1082 70.6505 15.7837C70.6505 14.8594 67.168 12.8426 66.446 13.5568C66.3611 13.6409 66.2761 14.2291 66.2761 14.2291C66.2761 14.2291 65.809 13.893 64.5349 13.893C59.6508 13.893 55.7436 19.8594 55.7436 25.2795C55.7436 25.5317 55.7436 25.7837 55.7861 26.0359C55.0216 27.8006 53.1105 30.8258 49.6704 30.8258C47.9291 30.8258 46.6975 29.6913 45.8481 28.2207C51.1993 26.7081 53.2803 22.0863 53.2803 19.1031C53.2803 15.6157 50.3075 13.893 48.1415 13.893C44.3617 13.893 40.2421 17.6325 40.2421 23.935C40.2421 25.7838 40.5819 27.3384 41.1764 28.6829C40.4969 29.7333 39.4776 30.7838 38.0761 30.7838C34.8739 30.7838 36.0648 22.0628 36.5988 18.1526C36.7163 17.2918 36.802 16.6642 36.802 16.414C36.802 16.0779 36.802 15.4056 36.165 14.9854C35.5937 14.5689 33.0637 14.1525 31.0773 13.8255L31.0773 13.8255L31.0771 13.8254C30.258 13.6906 29.5313 13.571 29.0725 13.4728V12.5484C29.0725 10.0274 27.5011 9.48121 26.4394 9.48121C24.6981 9.48121 24.3584 11.414 24.3584 11.8762C24.3584 12.3384 24.4858 13.977 26.227 14.9434C26.227 19.6073 23.2117 30.6577 15.1424 30.6577C9.02676 30.6577 6.81833 24.4392 6.81833 19.8174C6.81833 12.0022 11.4475 5.99382 14.4204 5.99382C16.2838 5.99382 16.3947 7.7799 16.5058 9.57103C16.6176 11.3723 16.7297 13.1787 18.6249 13.1787C21.2581 13.1787 21.6403 10.6577 21.6403 9.48121C21.6403 7.29634 19.3469 3.2207 14.4204 3.2207C6.60598 3.2207 0.830078 12.6325 0.830078 20.6997C0.830078 28.4728 6.22375 34.6913 13.7834 34.6913C25.4626 34.6913 28.3505 22.4224 28.9451 15.5737C29.2165 15.6482 29.6216 15.7387 30.0389 15.8318L30.0389 15.8319C30.7973 16.0012 31.5961 16.1795 31.7057 16.2879C31.8411 16.4219 31.7298 17.358 31.5684 18.7149L31.5684 18.7149C31.3755 20.3368 31.1111 22.56 31.1111 24.7333C31.1111 29.7333 32.7674 33.767 36.7596 33.767C39.2653 33.767 41.2614 31.9602 42.3231 30.5737C43.937 32.6325 46.2728 33.6829 48.5662 33.6829C52.5159 33.6829 55.1065 31.2459 56.3806 29.3132C57.4849 32.2543 59.7358 33.6829 61.7743 33.6829C64.6198 33.6829 66.3186 29.9014 66.4035 29.3132C67.2529 31.9602 69.249 33.767 71.4999 33.767C74.3454 33.767 76.0867 31.2039 76.7662 29.6073C77.7855 32.2964 79.3993 33.767 81.7351 33.767C84.4108 33.767 86.152 31.372 86.9589 29.7754C87.8083 32.1283 89.2098 33.767 91.4183 33.767C94.3912 33.767 96.2598 30.7417 96.8544 29.2291C97.8312 31.8342 99.3601 33.6829 101.738 33.6829C104.372 33.6829 106.665 29.9434 108.024 25.7417C109.128 26.7922 110.572 27.5485 112.313 27.7585C113.63 31.5401 116.73 33.6409 120 33.6409C125.691 33.6409 127.9 27.8426 128.155 26.498C128.494 25.1115 127.178 23.4728 126.753 23.893ZM47.9716 15.6996C50.3499 15.6996 48.9484 24.6912 45.0412 26.1618C44.7439 25.1954 44.6165 24.2711 44.6165 23.5568C44.574 20.5316 45.8056 15.6996 47.9716 15.6996ZM62.4538 29.9853C58.2917 29.9853 61.2221 15.7416 64.5348 15.7416C66.7432 15.7416 66.4035 29.9853 62.4538 29.9853ZM119.363 15.7837C121.657 15.7837 120.34 25.0695 116.348 25.6577C116.136 24.9014 116.051 24.1451 116.051 23.5569C116.051 20.5316 117.197 15.7837 119.363 15.7837ZM40.4519 40.3655H39.07C38.9837 40.3655 38.8973 40.4092 38.8541 40.4966L36.3927 44.649C36.2632 44.7801 36.1768 44.7801 36.0905 44.649L33.7154 40.4966C33.6722 40.4092 33.5859 40.3655 33.4995 40.3655H32.1609C31.9881 40.3655 31.8586 40.4966 31.8586 40.6715V48.9762C31.8586 49.151 31.9881 49.2821 32.1609 49.2821H33.4995C33.6723 49.2821 33.8018 49.151 33.8018 48.9762V44.6927C33.8018 44.4304 34.0609 44.2993 34.2336 44.5179L36.0905 47.5775C36.22 47.7523 36.4359 47.7523 36.5223 47.5775L38.4223 44.5179C38.595 44.2993 38.8541 44.4304 38.8541 44.6927V48.9762C38.8541 49.151 38.9837 49.2821 39.1564 49.2821H40.5382C40.711 49.2821 40.8405 49.151 40.8405 48.9762V40.6715C40.7542 40.4966 40.6246 40.3655 40.4519 40.3655ZM50.1477 40.3655C50.2735 40.3655 50.3573 40.4534 50.3993 40.5412L53.8788 48.8868C53.9626 49.0625 53.8369 49.2821 53.6273 49.2821H52.2438C52.1181 49.2821 52.0342 49.1943 51.9923 49.1064L51.4473 47.7009C51.4054 47.613 51.3215 47.5252 51.1958 47.5252H47.6324C47.5066 47.5252 47.4228 47.613 47.3809 47.7009L46.8778 49.1064C46.8359 49.1943 46.752 49.2821 46.6263 49.2821H45.2009C44.9913 49.2821 44.8655 49.0625 44.9494 48.8868L48.4708 40.5412C48.5128 40.4534 48.5966 40.3655 48.7224 40.3655H50.1477ZM48.5547 45.8122H50.3573C50.525 45.8122 50.6927 45.5926 50.6508 45.4169L49.7285 43.0011C49.6446 42.7814 49.3093 42.7814 49.2254 43.0011L48.3031 45.4169C48.2193 45.5926 48.3451 45.8122 48.5547 45.8122ZM75.3825 44.0808C75.3001 44.1682 75.3001 44.343 75.3825 44.4304L78.3518 48.845C78.4755 49.0199 78.3518 49.2821 78.1456 49.2821H76.5785C76.496 49.2821 76.4136 49.2384 76.3723 49.151L74.3103 46.004C74.2278 45.8728 74.0216 45.8728 73.8979 46.004L72.8257 47.3589C72.8257 47.3808 72.8154 47.4135 72.8051 47.4462L72.805 47.4464L72.805 47.4465C72.7947 47.4792 72.7844 47.5119 72.7844 47.5338V48.9762C72.7844 49.1073 72.702 49.2384 72.537 49.2384H71.2998C71.1761 49.2384 71.0523 49.151 71.0523 48.9762V40.6278C71.0523 40.4966 71.1348 40.3655 71.2998 40.3655H72.537C72.6607 40.3655 72.7844 40.4529 72.7844 40.6278V44.0371C72.7844 44.2993 73.0731 44.4304 73.2381 44.2119L76.0836 40.4529C76.1249 40.4092 76.2074 40.3655 76.2898 40.3655H77.692C77.8982 40.3655 78.0219 40.6278 77.8982 40.8026L75.3825 44.0808ZM89.5295 47.4812H85.4615C85.292 47.4812 85.1649 47.3495 85.1649 47.1738V45.856C85.1649 45.6803 85.292 45.5486 85.4615 45.5486H88.1735C88.343 45.5486 88.4701 45.4168 88.4701 45.2411V44.2748C88.4701 44.0991 88.343 43.9673 88.1735 43.9673H85.4615C85.292 43.9673 85.1649 43.8355 85.1649 43.6598V42.386C85.1649 42.2103 85.292 42.0786 85.4615 42.0786H89.2329C89.4024 42.0786 89.5295 41.9468 89.5295 41.7711V40.673C89.5295 40.4973 89.4024 40.3655 89.2329 40.3655H83.597C83.4275 40.3655 83.3004 40.4973 83.3004 40.673V48.9747C83.3004 49.1503 83.4275 49.2821 83.597 49.2821H89.5295C89.699 49.2821 89.8261 49.1503 89.8261 48.9747V47.8765C89.8685 47.613 89.699 47.4812 89.5295 47.4812ZM94.1694 40.3655H101.068C101.195 40.3655 101.322 40.4865 101.237 40.6075V41.656C101.237 41.777 101.152 41.898 100.983 41.898H98.74C98.6131 41.898 98.4861 41.9787 98.4861 42.14V48.2295C98.4861 48.3505 98.4015 48.4715 98.2322 48.4715H96.9203C96.7933 48.4715 96.6663 48.3909 96.6663 48.2295V42.14C96.6663 42.019 96.5817 41.898 96.4124 41.898H94.1694C94.0425 41.898 93.9155 41.8173 93.9155 41.656V40.6075C93.9155 40.4865 94.0001 40.3655 94.1694 40.3655ZM61.6269 40.3655C63.9656 40.3655 65.3366 41.7642 65.3366 43.6874C65.3366 44.8675 64.8527 45.6543 64.2076 46.2225C64.1269 46.3099 64.0866 46.441 64.1269 46.5722L65.2156 48.8887C65.2963 49.0636 65.1753 49.2821 64.9737 49.2821H63.5624C63.4414 49.2821 63.3608 49.1947 63.3205 49.1073L62.393 47.0967C62.3275 46.9546 62.262 46.9568 62.0884 46.9627C62.0483 46.964 62.0024 46.9656 61.9495 46.9656H61.7882H60.8204C60.5785 46.9656 60.5382 47.0093 60.5382 47.2278V48.9762C60.5382 49.1073 60.4575 49.2384 60.2962 49.2384H59.0462C58.9253 49.2384 58.8043 49.151 58.8043 48.9762V40.6715C58.8043 40.5404 58.8849 40.4092 59.0462 40.4092C59.9333 40.3655 60.7801 40.3655 61.6269 40.3655ZM61.4253 45.2706C61.5328 45.2658 61.6403 45.2609 61.7478 45.2609C62.9978 45.1735 63.5624 44.5179 63.5624 43.6874C63.5624 42.6821 62.7559 42.1576 61.7075 42.1139C61.3446 42.0702 61.0623 42.0702 60.7801 42.0702C60.6591 42.0702 60.5382 42.1576 60.5382 42.3324V44.9987C60.5382 45.1298 60.6188 45.2609 60.7801 45.2609C60.9951 45.2901 61.2102 45.2804 61.4252 45.2706H61.4253Z" fill="#8F8F8F"/>
</svg>
