<svg width="127" height="42" viewBox="0 0 127 42" fill="none" xmlns="http://www.w3.org/2000/svg">
<path fill-rule="evenodd" clip-rule="evenodd" d="M16.2782 14.8104H31.0468C31.0468 14.8104 31.3094 15.8692 31.3094 17.722C31.3094 26.5227 25.0081 32.4119 16.4095 32.4119C6.62945 32.4119 0 24.4052 0 16.2C0 7.79635 7.02327 0.0543675 16.147 0.120538C23.3015 0.120538 27.2398 4.48781 27.2398 4.48781L24.2205 7.66401C24.2205 7.66401 21.3324 4.48781 16.3439 4.48781C9.91135 4.48781 4.79158 9.64913 4.79158 16.3324C4.79158 23.148 10.1739 28.0446 16.3439 28.0446C21.1355 28.0446 26.2552 25.3316 26.7803 19.1777H16.2782V14.8104ZM43.0586 11.568C37.0199 11.568 32.6878 16.3323 32.6878 21.8907C32.6878 27.5814 36.8886 32.4118 43.1899 32.4118C48.9004 32.4118 53.495 28.1107 53.495 22.023C53.4294 15.1413 48.0471 11.568 43.0586 11.568ZM43.1242 15.7368C46.078 15.7368 48.9004 18.1852 48.9004 22.0231C48.9004 25.861 46.1436 28.3093 43.1242 28.3093C39.8423 28.3093 37.2825 25.6625 37.2825 21.9569C37.2168 18.3837 39.7767 15.7368 43.1242 15.7368ZM55.2672 21.8907C55.2672 16.3323 59.5993 11.568 65.638 11.568C70.6265 11.568 76.0089 15.1413 76.0745 22.023C76.0745 28.1107 71.4798 32.4118 65.7693 32.4118C59.4681 32.4118 55.2672 27.5814 55.2672 21.8907ZM71.4798 22.0231C71.4798 18.1852 68.6574 15.7368 65.7037 15.7368C62.3561 15.7368 59.7962 18.3837 59.8619 21.9569C59.8619 25.6625 62.4218 28.3093 65.7037 28.3093C68.723 28.3093 71.4798 25.861 71.4798 22.0231ZM87.7582 11.6342C82.1789 11.6342 77.8468 16.5308 77.8468 22.023C77.8468 28.243 82.9009 32.478 87.6269 32.478C90.5806 32.478 92.0903 31.3531 93.3374 29.9635V32.0148C93.3374 35.588 91.1713 37.7716 87.8894 37.7716C84.7388 37.7716 83.1635 35.3895 82.5728 34.0661L78.5688 35.7203C79.9472 38.698 82.7697 41.8081 87.8238 41.8081C93.3374 41.8081 97.5382 38.301 97.5382 30.9561V12.2297H93.2061V14.0163C92.0246 12.5606 90.1868 11.6342 87.7582 11.6342ZM88.1521 15.7368C90.8432 15.7368 93.6657 18.119 93.6657 22.0892C93.6657 26.1918 90.9089 28.3755 88.0864 28.3755C85.1327 28.3755 82.3759 25.9271 82.3759 22.1554C82.4416 18.0528 85.264 15.7368 88.1521 15.7368ZM107.318 21.9568C107.318 15.7368 111.716 11.568 116.967 11.568C121.037 11.568 124.122 14.3472 125.5 17.5234L126.222 19.2438L112.372 25.0669C113.226 26.655 114.538 28.2431 117.427 28.2431C119.986 28.2431 121.562 26.8535 122.481 25.3977L126.091 27.846C124.515 29.9635 121.759 32.4118 117.427 32.4118C112.241 32.4118 107.318 28.5078 107.318 21.9568ZM120.971 17.8543C120.315 16.5971 119.002 15.6045 117.098 15.6045C114.145 15.6045 111.257 18.7146 111.782 21.7584L120.971 17.8543ZM105.284 31.8163H100.754V1.11309H105.284V31.8163Z" fill="#8F8F8F"/>
</svg>
