<svg width="15" height="14" viewBox="0 0 15 14" fill="none" xmlns="http://www.w3.org/2000/svg">
<path d="M0 1.62626C0 1.15487 0.168924 0.765984 0.506757 0.459596C0.84459 0.153194 1.28379 0 1.82432 0C2.35522 0 2.78474 0.150832 3.11293 0.452525C3.45077 0.763636 3.61969 1.16901 3.61969 1.66869C3.61969 2.12121 3.4556 2.49831 3.12741 2.8C2.78958 3.11111 2.34556 3.26667 1.79537 3.26667H1.78089C1.25 3.26667 0.820468 3.11111 0.492278 2.8C0.164088 2.48889 0 2.09764 0 1.62626ZM0.188224 14V4.55354H3.40251V14H0.188224ZM5.1834 14H8.39768V8.72525C8.39768 8.39528 8.4363 8.14073 8.51351 7.96162C8.64864 7.64107 8.85376 7.37002 9.12886 7.14848C9.40396 6.92693 9.74903 6.81616 10.1641 6.81616C11.2452 6.81616 11.7857 7.52794 11.7857 8.95152V14H15V8.58384C15 7.18855 14.6622 6.1303 13.9865 5.40909C13.3108 4.68788 12.418 4.32727 11.3079 4.32727C10.0627 4.32727 9.09266 4.8505 8.39768 5.89697V5.92525H8.3832L8.39768 5.89697V4.55354H5.1834C5.2027 4.85521 5.21236 5.79326 5.21236 7.36768C5.21236 8.94208 5.2027 11.1529 5.1834 14Z" fill="white"/>
</svg>
