<svg width="17" height="14" viewBox="0 0 17 14" fill="none" xmlns="http://www.w3.org/2000/svg">
<path d="M17 1.67729C16.3611 1.9577 15.6854 2.14306 14.994 2.22762C15.7234 1.78678 16.2701 1.09324 16.5325 0.27568C15.847 0.688479 15.0966 0.979322 14.314 1.13557C13.7909 0.561654 13.0942 0.179627 12.3333 0.0494019C11.5725 -0.0808235 10.7904 0.0481181 10.1097 0.416004C9.42908 0.78389 8.88839 1.36991 8.57245 2.08216C8.25652 2.79441 8.1832 3.5926 8.364 4.35154C6.97801 4.28062 5.62228 3.91554 4.38486 3.28C3.14744 2.64447 2.05602 1.7527 1.1815 0.662628C0.874767 1.2045 0.713591 1.81816 0.714 2.44259C0.712912 3.02248 0.853585 3.59365 1.12349 4.10524C1.3934 4.61683 1.78417 5.05296 2.261 5.3748C1.70678 5.35955 1.1644 5.2091 0.68 4.93626V4.97926C0.684154 5.79176 0.965595 6.57786 1.47672 7.20461C1.98784 7.83136 2.69727 8.26027 3.485 8.4188C3.18177 8.51216 2.86694 8.56138 2.55 8.56498C2.33061 8.56239 2.11176 8.54226 1.8955 8.50479C2.11982 9.20372 2.55393 9.81452 3.13741 10.2522C3.7209 10.6899 4.42474 10.9327 5.151 10.9469C3.92462 11.9231 2.4105 12.4558 0.85 12.4603C0.565875 12.4612 0.281975 12.444 0 12.4087C1.59326 13.4494 3.44999 14.0018 5.3465 13.9995C6.65524 14.0132 7.95357 13.763 9.16565 13.2635C10.3777 12.7639 11.4793 12.0251 12.4059 11.09C13.3326 10.155 14.0658 9.04255 14.5627 7.81766C15.0596 6.59277 15.3102 5.27998 15.3 3.95599C15.3 3.80981 15.3 3.65503 15.3 3.50025C15.967 2.99706 16.5423 2.38019 17 1.67729Z" fill="white"/>
</svg>
